# OBJ written from E:\3d\3D-Objekte\todo\Platformer\Meshes\CrystalBlue.obj

o Default_Layer
v -1.00578e-006 -0.262342 -0.135934
v -0.126825 -0.108889 -0.135934
v 0.126824 -0.108889 -0.135934
v -0.126825 0.108889 -0.135934
v -1.00578e-006 0.262342 -0.135934
v 0.126824 0.108889 -0.135934
v -1.00578e-006 -0.262342 -0.135934
v 0.126824 -0.108889 -0.135934
v 0.232649 -0.178004 1.50866e-005
v -1.00578e-006 -0.461525 1.50866e-005
v -0.126825 -0.108889 -0.135934
v -0.232649 -0.178004 1.50866e-005
v 0.126824 0.108889 -0.135934
v 0.232649 0.178005 1.50866e-005
v -0.126825 0.108889 -0.135934
v -0.232649 0.178005 1.50866e-005
v -1.00578e-006 0.262342 -0.135934
v -1.00578e-006 0.461525 1.50866e-005
v -1.00578e-006 -0.262342 0.135934
v -0.126825 -0.108889 0.135934
v 0.126824 -0.108889 0.135934
v -0.126825 0.108889 0.135934
v 0.126824 0.108889 0.135934
v -1.00578e-006 0.262342 0.135934
v -1.00578e-006 -0.262342 0.135934
v 0.126824 -0.108889 0.135934
v -0.126825 -0.108889 0.135934
v 0.126824 0.108889 0.135934
v -0.126825 0.108889 0.135934
v -1.00578e-006 0.262342 0.135934
v 0.145362 -0.20317 0
v 0.145362 -0.0843293 -0.0591889
v 0.145362 -0.0843293 0.0591889
v 0.145362 0.0843293 -0.0591889
v 0.145362 0.20317 0
v 0.145362 0.0843293 0.0591889
v 0.145362 -0.20317 0
v 0.145362 -0.0843293 0.0591889
v -1.60924e-005 -0.137856 0.108578
v -1.60924e-005 -0.357428 0
v 0.145362 -0.0843293 -0.0591889
v -1.60924e-005 -0.137856 -0.108577
v 0.145362 0.0843293 0.0591889
v -1.60924e-005 0.137856 0.108578
v 0.145362 0.0843293 -0.0591889
v -1.60924e-005 0.137856 -0.108577
v 0.145362 0.20317 0
v -1.60924e-005 0.357427 0
v -0.145363 -0.20317 0
v -0.145363 -0.0843293 -0.0591889
v -0.145363 -0.0843293 0.0591889
v -0.145363 0.0843293 -0.0591889
v -0.145363 0.0843293 0.0591889
v -0.145363 0.20317 0
v -0.145363 -0.20317 0
v -0.145363 -0.0843293 0.0591889
v -0.145363 -0.0843293 -0.0591889
v -0.145363 0.0843293 0.0591889
v -0.145363 0.0843293 -0.0591889
v -0.145363 0.20317 0
vn 0 0 -1
vn 0.566251 -0.464652 -0.680777
vn 0.701778 -0.240588 -0.670541
vn -0.702553 -0.241212 -0.669504
vn -0.567711 -0.465846 -0.678743
vn 0.702549 0.241213 -0.669508
vn -0.70178 0.240587 -0.670539
vn 0.567705 0.465847 -0.678747
vn -0.566253 0.464652 -0.680776
vn 0 0 1
vn 0.701929 -0.242347 0.669749
vn 0.566109 -0.467878 0.678683
vn -0.563438 -0.465667 0.682416
vn -0.700513 -0.24119 0.671647
vn 0.70051 0.241191 0.67165
vn -0.701931 0.242346 0.669747
vn 0.563435 0.465668 0.682417
vn -0.566111 0.467876 0.678683
vn 1 0 0
vn 0.425612 -0.401111 0.81115
vn 0.382849 -0.205498 0.900665
vn 0.381838 -0.205695 -0.901049
vn 0.423672 -0.401511 -0.811967
vn 0.153776 -0.144945 0.977417
vn 0.381845 0.205697 0.901046
vn 0.153047 0.145062 0.977514
vn 0.153775 0.144945 -0.977417
vn 0.382845 0.205498 -0.900667
vn 0.153044 -0.14506 -0.977515
vn 0.423679 0.401515 0.811962
vn 0.425609 0.401111 -0.811152
vn -1 0 0
vn -0.382219 -0.206895 0.900612
vn -0.424131 -0.403734 0.810624
vn -0.427694 -0.402987 -0.809123
vn -0.38407 -0.206527 -0.899909
vn -0.384072 0.206527 0.899909
vn -0.153305 -0.145911 0.977347
vn -0.154649 0.145695 0.977168
vn -0.382215 0.206895 -0.900614
vn -0.153303 0.145911 -0.977347
vn -0.15465 -0.145695 -0.977168
vn -0.427691 0.402987 0.809124
vn -0.424128 0.403735 -0.810626
vt 0.653491 0.607887
vt 0.701323 0.467198
vt 0.846951 0.500004
vt 0.916346 0.623117
vt 0.722886 0.731
vt 0.868513 0.763807
vt 0.681432 0.669699
vt 0.537789 0.85893
vt 0.427758 0.803285
vt 0.478693 0.568372
vt 0.523396 0.0458629
vt 0.725623 0.00393176
vt 0.682861 0.154692
vt 0.443461 0.323087
vt 0.995384 0.308619
vt 0.796447 0.210318
vt 0.728081 0.0244982
vt 0.883623 0.00485224
vt 0.74504 0.105949
vt 0.81762 0.299524
vt 0.70158 0.406767
vt 0.555346 0.281262
vt 0.198271 0.589433
vt 0.0783615 0.434012
vt 0.152415 0.290656
vt 0.334875 0.325821
vt 0.418117 0.710281
vt 0.378776 0.941296
vt 0.245517 0.993281
vt 0.172581 0.806603
vt 0.397447 0.706227
vt 0.25182 0.739034
vt 0.203987 0.598344
vt 0.466842 0.583115
vt 0.273382 0.475231
vt 0.41901 0.442425
vt 0.657711 0.713258
vt 0.790971 0.765243
vt 0.830327 0.996229
vt 0.58479 0.899904
vt 0.491996 0.563363
vt 0.417943 0.420006
vt 0.537828 0.264606
vt 0.674433 0.528218
vt 0.880189 0.261561
vt 0.996229 0.368802
vt 0.923664 0.562345
vt 0.73397 0.387033
vt 0.260359 0.197967
vt 0.0925329 0.33028
vt 0.00377136 0.220071
vt 0.278123 0.00377131
vt 0.479943 0.174449
vt 0.359466 0.326679
vt 0.203987 0.284363
vt 0.426226 0.00443339
vt 0.00377136 0.624518
vt 0.1138 0.568874
vt 0.257427 0.758076
vt 0.0546941 0.8594
mtllib CrystalBlue.mtl
usemtl CrystalBlue
f 3/1/1 1/2/1 2/3/1
f 3/1/1 2/3/1 4/4/1 6/5/1
f 6/5/1 4/4/1 5/6/1
f 10/7/2 7/8/2 8/9/3 9/10/3
f 12/11/4 11/12/4 7/13/5 10/14/5
f 9/15/3 8/16/3 13/17/6 14/18/6
f 16/19/7 15/20/7 11/21/4 12/22/4
f 14/23/6 13/24/6 17/25/8 18/26/8
f 18/27/9 17/28/9 15/29/7 16/30/7
f 20/31/10 19/32/10 21/33/10
f 22/34/10 20/31/10 21/33/10 23/35/10
f 24/36/10 22/34/10 23/35/10
f 26/37/11 25/38/12 10/39/12 9/40/11
f 25/41/13 27/42/14 12/43/14 10/44/13
f 28/45/15 26/46/11 9/47/11 14/48/15
f 27/49/14 29/50/16 16/51/16 12/52/14
f 30/53/17 28/54/15 14/55/15 18/56/17
f 29/57/16 30/58/18 18/59/18 16/60/16
f 33/1/19 31/2/19 32/3/19
f 33/1/19 32/3/19 34/4/19 36/5/19
f 36/5/19 34/4/19 35/6/19
f 40/7/20 37/8/20 38/9/21 39/10/21
f 42/11/22 41/12/22 37/13/23 40/14/23
f 39/15/24 38/16/21 43/17/25 44/18/26
f 46/19/27 45/20/28 41/21/22 42/22/29
f 44/23/25 43/24/25 47/25/30 48/26/30
f 48/27/31 47/28/31 45/29/28 46/30/28
f 50/31/32 49/32/32 51/33/32
f 52/34/32 50/31/32 51/33/32 53/35/32
f 54/36/32 52/34/32 53/35/32
f 56/37/33 55/38/34 40/39/34 39/40/33
f 55/41/35 57/42/36 42/43/36 40/44/35
f 58/45/37 56/46/33 39/47/38 44/48/39
f 57/49/36 59/50/40 46/51/41 42/52/42
f 60/53/43 58/54/37 44/55/37 48/56/43
f 59/57/40 60/58/44 48/59/44 46/60/40
