# OBJ written from E:\3d\3D-Objekte\todo\Platformer\Meshes\PlantReed.obj

o Mesh
v 0.462463 -0.0346546 0.190832
v -0.553636 0.0346546 -0.24021
v -0.448905 1.23371 -0.325634
v -0.344173 2.43276 -0.411058
v 0.671926 2.36345 0.0199833
v 0.567194 1.1644 0.105408
v 0.322682 -0.0303488 -0.337675
v -0.413855 0.0303488 0.2883
v -0.439575 1.08042 0.172768
v -0.465295 2.13049 0.0572357
v 0.271242 2.0698 -0.568739
v 0.296963 1.01972 -0.453207
v -0.458774 0.7744 -0.156916
v 0.118038 0.7744 0.419895
v -0.302853 1.31748 0.840786
v -0.879665 1.31748 0.263975
v -0.642782 1.08676 0.027092
v -0.0659699 1.08676 0.603903
v 0.274217 0 0.263718
v 0.234407 0.40264 0.303526
v -0.342404 0.40264 -0.273287
v -0.302596 0 -0.313095
v 0.304717 0.7744 0.312117
v 0.0935888 0.7744 -0.475824
v 0.668537 1.31748 -0.629881
v 0.879664 1.31748 0.158058
v 0.556076 1.08676 0.244764
v 0.344949 1.08676 -0.543175
v -0.119754 0 -0.418659
v -0.0653758 0.40264 -0.433229
v 0.145753 0.40264 0.35471
v 0.0913734 0 0.369282
v 0.393678 0.7744 -0.245558
v -0.422058 0.7744 -0.245558
v -0.422058 1.31748 -0.840786
v 0.393678 1.31748 -0.840786
v 0.393678 1.08676 -0.505783
v -0.422058 1.08676 -0.505783
v -0.422058 0 -0.0246887
v -0.422058 0.40264 -0.080986
v 0.393678 0.40264 -0.080986
v 0.393678 0 -0.0246887
vn 0 0.138473 0.990366
vn 0 0.274276 0.961651
vn 0 0.823581 0.567199
vn 0 0.738703 0.674031
vn 0 0.527514 0.849546
vn -0.956621 0.138471 0.256325
vn -0.928884 0.274275 0.248893
vn -0.547871 0.823582 0.146801
vn -0.651063 0.738704 0.174452
vn -0.820597 0.527516 0.219878
vn 0.700294 0.138475 -0.700294
vn 0.67999 0.274276 -0.67999
vn 0.401069 0.823582 -0.40107
vn 0.476611 0.738704 -0.476612
vn 0.600719 0.527515 -0.60072
vn 0.649144 0.09888 0.754211
vn -0.382889 0.0988792 0.918487
vt 0.25 0
vt 0.5 0
vt 0.5 0.125
vt 0.25 0.125
vt 0.25 0.5
vt 0.25 0.375
vt 0.5 0.375
vt 0.5 0.5
vt 0.25 0.25
vt 0.5 0.25
mtllib PlantReed.mtl
usemtl Plants
f 39/1/1 42/2/1 41/3/2 40/4/2
f 35/5/3 38/6/4 37/7/4 36/8/3
f 38/6/4 34/9/5 33/10/5 37/7/4
f 34/9/5 40/4/2 41/3/2 33/10/5
f 29/1/6 32/2/6 31/3/7 30/4/7
f 25/5/8 28/6/9 27/7/9 26/8/8
f 28/6/9 24/9/10 23/10/10 27/7/9
f 24/9/10 30/4/7 31/3/7 23/10/10
f 19/1/11 22/2/11 21/3/12 20/4/12
f 15/5/13 18/6/14 17/7/14 16/8/13
f 18/6/14 14/9/15 13/10/15 17/7/14
f 14/9/15 20/4/12 21/3/12 13/10/15
f 7/2/16 12/10/16 11/8/16 10/5/16 9/9/16 8/1/16
f 1/2/17 6/10/17 5/8/17 4/5/17 3/9/17 2/1/17
