# OBJ written from E:\3d\3D-Objekte\todo\Platformer\Meshes\PlantRoots.obj

o Mesh
v -0.681852 2.16084 -0.604445
v 1.09785 2.03945 0.150528
v 0.914413 -0.0606976 0.300152
v -0.86529 0.0606976 -0.454823
v -0.763416 2.16084 0.317577
v 0.709658 2.03945 -0.934372
v 0.761097 -0.0606976 -0.70331
v -0.711975 0.0606976 0.548639
v -0.677008 0.774413 -0.497993
v 0.476616 0.774413 0.65563
v 0.0557747 1.31757 1.07647
v -1.09785 1.31757 -0.0771523
v -0.860992 1.08681 -0.314011
v 0.292631 1.08681 0.839615
v 0.59297 0.402642 0.539276
v -0.560656 0.402642 -0.614346
v -0.520855 0 -0.654148
v 0.632771 0 0.499475
v 0.480396 0.774413 0.653448
v 0.0581398 0.774413 -0.922432
v 0.63302 1.31757 -1.07647
v 1.05528 1.31757 0.499409
v 0.731722 1.08681 0.586105
v 0.309465 1.08681 -0.989775
v -0.1008 0.402642 -0.879845
v 0.321457 0.402642 0.696035
v 0.267084 0 0.710604
v -0.15517 0 -0.865276
v 0.871693 0.774413 -0.298172
v -0.759779 0.774413 -0.298172
v -0.759779 1.31757 -0.89333
v 0.871693 1.31757 -0.89333
v 0.871693 1.08681 -0.558363
v -0.759779 1.08681 -0.558363
v -0.759779 0.402642 -0.133625
v 0.871693 0.402642 -0.133625
v 0.871693 0 -0.0773354
v -0.759779 0 -0.0773354
vn 0 0.274234 0.961663
vn 0 0.138454 0.990369
vn 0 0.823492 0.567328
vn 0 0.738612 0.67413
vn 0 0.527439 0.849593
vn -0.928896 0.274232 0.248897
vn -0.956623 0.138452 0.256327
vn -0.547994 0.823494 0.146835
vn -0.651158 0.738614 0.174478
vn -0.820644 0.527438 0.219891
vn 0.679998 0.274233 -0.679999
vn 0.700296 0.138447 -0.700298
vn 0.401162 0.823491 -0.401162
vn 0.476681 0.738614 -0.476681
vn 0.600751 0.527443 -0.600751
vn 0.649144 0.0988799 0.754211
vn -0.382889 0.0988798 0.918487
vt 0.5 0.625
vt 0.5 0.5
vt 1 0.5
vt 1 0.625
vt 0.5 1
vt 0.5 0.875
vt 1 0.875
vt 1 1
vt 0.5 0.75
vt 1 0.75
mtllib PlantRoots.mtl
usemtl Plants
f 35/1/1 38/2/2 37/3/2 36/4/1
f 31/5/3 34/6/4 33/7/4 32/8/3
f 34/6/4 30/9/5 29/10/5 33/7/4
f 30/9/5 35/1/1 36/4/1 29/10/5
f 25/1/6 28/2/7 27/3/7 26/4/6
f 21/5/8 24/6/9 23/7/9 22/8/8
f 24/6/9 20/9/10 19/10/10 23/7/9
f 20/9/10 25/1/6 26/4/6 19/10/10
f 15/1/11 18/2/12 17/3/12 16/4/11
f 11/5/13 14/6/14 13/7/14 12/8/13
f 14/6/14 10/9/15 9/10/15 13/7/14
f 10/9/15 15/1/11 16/4/11 9/10/15
f 5/5/16 8/2/16 7/3/16 6/8/16
f 1/5/17 4/2/17 3/3/17 2/8/17
