# OBJ written from E:\3d\3D-Objekte\todo\Platformer\Meshes\PlantShrub.obj

o Mesh
v -0.921127 0 -0.0773602
v 0.710344 0 -0.0773602
v 0.710344 1.31748 -0.893459
v -0.921127 1.31748 -0.893459
v 0.710344 1.08676 -0.558456
v -0.921127 1.08676 -0.558456
v -0.921127 0.40264 -0.133656
v 0.710344 0.40264 -0.133656
v 0.710344 0.7744 -0.298229
v -0.921127 0.7744 -0.298229
v -0.316519 0 -0.865299
v 0.105737 0 0.710581
v 0.894028 1.31748 0.499359
v 0.471772 1.31748 -1.07652
v 0.570439 1.08676 0.586063
v 0.148183 1.08676 -0.989817
v -0.26214 0.40264 -0.879869
v 0.160115 0.40264 0.696009
v 0.31908 0.7744 0.653416
v -0.103176 0.7744 -0.922466
v 0.471421 0 0.499453
v -0.682203 0 -0.654173
v -1.25927 1.31748 -0.0771027
v -0.105648 1.31748 1.07652
v -1.02239 1.08676 -0.313986
v 0.131235 1.08676 0.83964
v 0.431613 0.40264 0.539261
v -0.722012 0.40264 -0.614365
v -0.838382 0.7744 -0.497993
v 0.315243 0.7744 0.655632
v 0.185984 0 -0.0773602
v 0.922521 -0.0606976 -0.703335
v 0.871079 2.03945 -0.934397
v 0.134542 2.10015 -0.30842
v -0.601995 2.16084 0.317553
v -0.550553 0.0606976 0.548615
v 1.07584 -0.0606976 0.300127
v 1.25927 2.03945 0.150505
v 0.369421 2.10015 -0.22698
v -0.520431 2.16084 -0.604469
v -0.703868 0.0606976 -0.454845
vn 0 0.274275 0.961651
vn 0 0.138469 0.990367
vn 0 0.823581 0.567199
vn 0 0.738704 0.67403
vn 0 0.527518 0.849544
vn -0.928884 0.274276 0.248894
vn -0.95662 0.138472 0.256326
vn -0.54787 0.823582 0.146801
vn -0.651063 0.738704 0.174452
vn -0.820598 0.527515 0.219879
vn 0.67999 0.274277 -0.679989
vn 0.700295 0.138474 -0.700294
vn 0.40107 0.823582 -0.401069
vn 0.476612 0.738704 -0.476611
vn 0.600719 0.527516 -0.600719
vn 0.649144 0.0988799 0.754211
vn -0.382888 0.0988806 0.918487
vt 0 0.625
vt 0 0.5
vt 0.5 0.5
vt 0.5 0.625
vt 0 1
vt 0 0.875
vt 0.5 0.875
vt 0.5 1
vt 0 0.75
vt 0.5 0.75
vt 0.25 0.5
vt 0.25 1
mtllib PlantShrub.mtl
usemtl Plants
f 7/1/1 1/2/2 2/3/2 8/4/1
f 4/5/3 6/6/4 5/7/4 3/8/3
f 6/6/4 10/9/5 9/10/5 5/7/4
f 10/9/5 7/1/1 8/4/1 9/10/5
f 17/1/6 11/2/7 12/3/7 18/4/6
f 14/5/8 16/6/9 15/7/9 13/8/8
f 16/6/9 20/9/10 19/10/10 15/7/9
f 20/9/10 17/1/6 18/4/6 19/10/10
f 27/1/11 21/2/12 22/3/12 28/4/11
f 24/5/13 26/6/14 25/7/14 23/8/13
f 26/6/14 30/9/15 29/10/15 25/7/14
f 30/9/15 27/1/11 28/4/11 29/10/15
f 36/2/16 31/11/16 32/3/16 33/8/16 34/12/16 35/5/16
f 41/2/17 31/11/17 37/3/17 38/8/17 39/12/17 40/5/17
