# OBJ written from E:\3d\3D-Objekte\todo\Platformer\Meshes\PlantFlowers.obj

o Default_Layer
v 0.48045 -0.035882 0.198462
v -0.571621 0.035882 -0.247839
v -0.463182 1.27738 -0.336288
v -0.354744 2.51888 -0.424738
v 0.697328 2.44712 0.0215645
v 0.588889 1.20562 0.110014
v 0.322683 -0.0303488 -0.337677
v -0.413855 0.0303488 0.288298
v -0.439575 1.08042 0.172768
v -0.465294 2.13049 0.0572357
v 0.271243 2.0698 -0.568739
v 0.296962 1.01972 -0.453207
v -0.458774 0.7744 -0.156916
v 0.118038 0.7744 0.419895
v -0.302853 1.31748 0.840788
v -0.879665 1.31748 0.263975
v -0.642782 1.08676 0.0270901
v -0.065969 1.08676 0.603903
v 0.274216 0 0.263718
v 0.234409 0.40264 0.303526
v -0.342403 0.40264 -0.273287
v -0.302596 0 -0.313095
v 0.304718 0.7744 0.312117
v 0.0935893 0.7744 -0.475824
v 0.668538 1.31748 -0.629881
v 0.879665 1.31748 0.15806
v 0.556077 1.08676 0.244764
v 0.344948 1.08676 -0.543175
v -0.119754 0 -0.418659
v -0.0653749 0.40264 -0.433229
v 0.145752 0.40264 0.354712
v 0.0913739 0 0.369282
v 0.393678 0.7744 -0.245558
v -0.422058 0.7744 -0.245558
v -0.422058 1.31748 -0.840788
v 0.393678 1.31748 -0.840788
v 0.393678 1.08676 -0.505783
v -0.422058 1.08676 -0.505783
v -0.422058 0 -0.0246887
v -0.422058 0.40264 -0.080986
v 0.393678 0.40264 -0.080986
v 0.393678 0 -0.0246887
vn 0 0.138473 0.990366
vn 0 0.823583 0.567196
vn 0 0.640072 0.768315
vn 0 0.404793 0.914408
vn -0.95662 0.138474 0.256326
vn -0.54787 0.823582 0.146801
vn -0.742135 0.640072 0.198855
vn -0.88325 0.404794 0.236666
vn 0.700295 0.138472 -0.700294
vn 0.401068 0.823583 -0.401068
vn 0.543281 0.640072 -0.543281
vn 0.646583 0.404795 -0.646584
vn 0.649144 0.0988793 0.754211
vn -0.382888 0.0988785 0.918488
vt 0 0
vt 0.25 0
vt 0.25 0.125
vt 0 0.125
vt 0 0.5
vt 0 0.375
vt 0.25 0.375
vt 0.25 0.5
vt 0 0.25
vt 0.25 0.25
mtllib PlantFlowers.mtl
usemtl Plants
f 39/1/1 42/2/1 41/3/1 40/4/1
f 35/5/2 38/6/2 37/7/2 36/8/2
f 38/6/3 34/9/3 33/10/3 37/7/3
f 34/9/4 40/4/4 41/3/4 33/10/4
f 29/1/5 32/2/5 31/3/5 30/4/5
f 25/5/6 28/6/6 27/7/6 26/8/6
f 28/6/7 24/9/7 23/10/7 27/7/7
f 24/9/8 30/4/8 31/3/8 23/10/8
f 19/1/9 22/2/9 21/3/9 20/4/9
f 15/5/10 18/6/10 17/7/10 16/8/10
f 18/6/11 14/9/11 13/10/11 17/7/11
f 14/9/12 20/4/12 21/3/12 13/10/12
f 7/2/13 12/10/13 11/8/13 10/5/13 9/9/13 8/1/13
f 1/2/14 6/10/14 5/8/14 4/5/14 3/9/14 2/1/14
