# OBJ written from E:\3d\3D-Objekte\todo\Platformer\Meshes\PlantGrass.obj

o Mesh
v -0.604965 0.856416 -0.589834
v 0.720423 0.762819 0.356888
v 0.631299 -0.0467978 0.401619
v -0.694091 0.0467978 -0.545103
v -0.751726 0.856416 0.208485
v 0.688933 0.762819 -0.551411
v 0.688933 -0.0467978 -0.451691
v -0.751726 0.0467978 0.308205
v -0.37947 0.395177 -0.788134
v 0.217242 0.395177 0.730297
v -0.0110468 0.717038 0.820011
v -0.607759 0.717038 -0.698421
v -0.477294 0.56947 -0.749691
v 0.119418 0.56947 0.76874
v 0.277836 0.202336 0.706484
v -0.318876 0.202336 -0.811947
v -0.298356 0 -0.820011
v 0.298356 0 0.698421
v -0.434186 0.395177 0.635267
v 0.57144 0.395177 -0.649418
v 0.764586 0.717038 -0.498226
v -0.241039 0.717038 0.786461
v -0.351421 0.56947 0.700054
v 0.654206 0.56947 -0.584629
v 0.520173 0.202336 -0.689548
v -0.485452 0.202336 0.595137
v -0.502813 0 0.581547
v 0.502812 0 -0.703136
v 0.815735 0.395177 -0.147945
v -0.815736 0.395177 -0.147945
v -0.815736 0.717038 -0.39323
v 0.815735 0.717038 -0.39323
v 0.815735 0.56947 -0.253054
v -0.815736 0.56947 -0.253054
v -0.815736 0.202336 -0.08284
v 0.815735 0.202336 -0.08284
v 0.815735 0 -0.0607948
v -0.815736 0 -0.0607948
vn 0 0.21536 0.976535
vn 0 0.108312 0.994117
vn 0 0.688717 0.72503
vn 0 0.606133 0.795363
vn 0 0.420621 0.907237
vn -0.768961 0.215365 -0.601927
vn -0.782807 0.108316 -0.612765
vn -0.57092 0.688714 -0.446904
vn -0.626301 0.606131 -0.490256
vn -0.714393 0.420622 -0.559213
vn 0.908872 0.215364 -0.357168
vn 0.925237 0.108318 -0.363599
vn 0.674793 0.688719 -0.26518
vn 0.740256 0.606131 -0.290905
vn 0.844378 0.420618 -0.331823
vn 0.469293 0.107948 0.87642
vn -0.572789 0.107949 0.812563
vt 0.5 0.0625
vt 0.5 0
vt 1 0
vt 1 0.0625
vt 0.5 0.25
vt 0.5 0.1875
vt 1 0.1875
vt 1 0.25
vt 0.5 0.125
vt 1 0.125
mtllib PlantGrass.mtl
usemtl Plants
f 35/1/1 38/2/2 37/3/2 36/4/1
f 31/5/3 34/6/4 33/7/4 32/8/3
f 34/6/4 30/9/5 29/10/5 33/7/4
f 30/9/5 35/1/1 36/4/1 29/10/5
f 25/1/6 28/2/7 27/3/7 26/4/6
f 21/5/8 24/6/9 23/7/9 22/8/8
f 24/6/9 20/9/10 19/10/10 23/7/9
f 20/9/10 25/1/6 26/4/6 19/10/10
f 15/1/11 18/2/12 17/3/12 16/4/11
f 11/5/13 14/6/14 13/7/14 12/8/13
f 14/6/14 10/9/15 9/10/15 13/7/14
f 10/9/15 15/1/11 16/4/11 9/10/15
f 5/5/16 8/2/16 7/3/16 6/8/16
f 1/5/17 4/2/17 3/3/17 2/8/17
