# OBJ written from E:\3d\3D-Objekte\todo\Platformer\Meshes\SteppingStoneCluster4.obj

o Mesh
v 0.641765 0 1.13671
v -0.0458342 0 1.25981
v 0.061497 0 1.50595
v 0.567635 0 1.50595
v 0.677554 0 1.2773
v 0.368247 0 0.927097
v 0.186752 0 1.10092
v 0.0205953 0 1.2134
v 0.0232183 0.110126 1.26165
v 0.0774699 0.110126 1.22375
v 0.213163 0.110126 1.1319
v 0.584758 0.110126 1.16112
v 0.361384 0.110126 0.989937
v 0.36869 0.159466 1.29728
v 0.110872 0.110126 1.46267
v 0.524217 0.110126 1.46267
v 0.613984 0.110126 1.27594
v 1.28521 0 -0.510262
v 1.20897 0 -0.248127
v 1.208 0 -0.0571632
v 1.60116 0 -0.0668564
v 1.66018 0 -0.175797
v 1.47399 0 -0.531239
v 1.4622 0.110126 -0.481983
v 1.30803 0.110126 -0.464851
v 1.24577 0.110126 -0.250774
v 1.4113 0.150828 -0.306293
v 1.46294 0.151554 -0.215965
v 1.24498 0.110126 -0.0948219
v 1.56606 0.110126 -0.102737
v 1.61426 0.110126 -0.191708
v 0.701121 0.110126 0.28941
v 0.631619 0 0.217865
v 0.63673 0 0.537395
v 0.705295 0.110126 0.550362
v 0.667405 0 0.913164
v 0.730347 0.110126 0.857239
v 0.940926 0 1.12278
v 0.953721 0.110126 1.02842
v 1.12073 0.110126 1.05765
v 1.14542 0 1.15857
v 1.30653 0.110126 0.869762
v 1.37293 0 0.928497
v 1.41639 0 0.458214
v 1.34202 0.110126 0.485695
v 1.32181 0 0.248554
v 0.969043 0 0.0747147
v 0.976685 0.110126 0.172504
v 1.26478 0.110126 0.314472
v -0.511249 0.110126 -1.35493
v -0.400391 0 -1.45122
v -0.740354 0.110126 -1.48198
v -0.680928 0 -1.6068
v -0.992669 0.110126 -1.52098
v -0.989881 0 -1.65456
v -1.40493 0 -1.44447
v -1.66488 0 -0.695793
v -1.60826 0 -0.416946
v -1.2877 0 -0.190147
v -1.01839 0 -0.245106
v -0.515522 0 -0.492157
v -0.410947 0 -0.781517
v -0.519874 0.110126 -0.808006
v -1.33162 0.110126 -1.34941
v -1.54392 0.110126 -0.737995
v -1.49768 0.110126 -0.510269
v -1.23589 0.110126 -0.325054
v -0.605275 0.110126 -0.571693
v -0.990081 0.181589 -0.93716
v -1.01595 0.110126 -0.369934
v 0.00482219 0 0.866482
v -0.181784 0 0.996849
v 0.316686 0 -0.115124
v 0.170979 0 0.754005
v 0.352474 0 0.580181
v 0.321797 0 0.204411
v -0.128103 0 -0.368191
v -0.731378 0 0.994293
v -0.938436 0 0.723331
v -0.965382 0 0.002388
v -0.940993 0 0.168621
v -0.992117 0 0.549503
v -0.362233 0 -0.472145
v -0.773257 0 -0.091404
v -0.165205 0.110126 -0.24403
v 0.198041 0.110126 -0.0373573
v 0.202214 0.110126 0.223595
v -0.209045 0.110126 0.870754
v 0.0790452 0.110126 0.672432
v 0.227266 0.110126 0.530472
v -0.05665 0.110126 0.764286
v -0.356409 0.110126 -0.328926
v -0.845751 0.110126 0.0650368
v -0.692084 0.110126 -0.0179863
v -0.855411 0.110126 0.148346
v -0.826976 0.110126 0.647377
v -0.657879 0.110126 0.868664
v -0.870816 0.110126 0.505421
v -0.306478 0.19061 0.318195
v -0.829064 0.110126 0.194366
v 1.10562 0 -0.748291
v 1.26736 0 -1.01003
v 1.12844 0.110126 -0.98843
v 0.996354 0.110126 -0.774681
v 1.11117 0 -1.21307
v 1.00089 0.110126 -1.15425
v 0.84096 0 -1.64766
v 0.780214 0.110126 -1.50917
v 0.476113 0 -1.6828
v 0.482257 0.110126 -1.53786
v 0.317002 0 -1.57719
v 0.352317 0.110126 -1.45162
v 0.0568572 0 -1.49443
v 0.139865 0.110126 -1.38403
v -0.238311 0 -1.18636
v -0.10119 0.110126 -1.13244
v -0.299123 0 -0.806362
v -0.150853 0.110126 -0.822105
v -0.0579309 0 -0.479073
v 0.0461207 0.110126 -0.554821
v 0.692457 0 -0.0718193
v 0.658938 0.110126 -0.222229
v 0.957825 0 -0.0950127
v 0.875654 0.110126 -0.241173
v 0.0461207 0.110126 -0.554821
v 0.996354 0.110126 -0.774681
v 1.12844 0.110126 -0.98843
v 0.139865 0.110126 -1.38403
v 0.875654 0.110126 -0.241173
v 0.658938 0.110126 -0.222229
v 1.00089 0.110126 -1.15425
v 0.780214 0.110126 -1.50917
v 0.482257 0.110126 -1.53786
v 0.352317 0.110126 -1.45162
v -0.150853 0.110126 -0.822105
v 0.601378 0.201779 -0.903427
v -0.10119 0.110126 -1.13244
v 1.48792 0 1.14341
v 1.29876 0 1.34024
v 1.20929 0 1.50896
v 1.56205 0 1.6828
v 1.66488 0 1.61368
v 1.66488 0 1.21243
v 1.63159 0.110126 1.25059
v 1.48706 0.110126 1.19423
v 1.33258 0.110126 1.35497
v 1.50497 0.150828 1.3826
v 1.5088 0.151554 1.48658
v 1.25951 0.110126 1.49275
v 1.54761 0.110126 1.63472
v 1.63159 0.110126 1.57828
vn -0.371847 0.754558 -0.540714
vn -0.531416 0.347093 -0.772738
vn -0.816692 0.516412 -0.257552
vn -0.605015 0.756861 -0.247223
vn 0.594903 0.715334 -0.366589
vn 0.573936 0.816622 0.0610387
vn 0.862228 0.498807 0.0880568
vn 0.72804 0.484406 -0.485086
vn -0.0642672 0.491567 -0.868465
vn -0.0179364 0.864752 -0.501879
vn -0.227476 0.895302 0.382999
vn -0.459527 0.495686 0.736974
vn 0.400646 0.721558 0.564657
vn 0.456483 0.475534 0.751991
vn -0.411868 0.755147 -0.510018
vn -0.589397 0.346589 -0.729717
vn 0.00168832 0.995665 -0.0930015
vn -0.793998 0.59916 -0.102829
vn -0.393729 0.810507 -0.433653
vn -0.596458 0.408503 -0.690915
vn -0.940517 0.310981 -0.136815
vn 0.294843 0.795772 -0.528975
vn 0.440815 0.405373 -0.800847
vn -0.63135 0.432173 0.643913
vn -0.274985 0.914793 0.295868
vn 0.42833 0.670275 0.606024
vn 0.469715 0.405266 0.7843
vn 0.635289 0.772236 -0.00768564
vn 0.923171 0.384367 -0.00414009
vn -0.0415654 0.996006 -0.0790164
vn 0.117916 0.992834 0.0194138
vn 0.309039 0.903733 -0.296246
vn 0.0197506 0.846618 -0.531835
vn -0.449785 0.851268 -0.270251
vn -0.319087 0.947597 0.015582
vn 0.448617 0.890727 -0.073131
vn 0.119327 0.923646 0.364196
vn 0.523792 0.818583 0.23572
vn -0.513262 0.814542 0.270339
vn -0.227287 0.830527 0.508494
vn 0.0277937 0.662647 -0.748416
vn -0.644904 0.658751 -0.387487
vn -0.850364 0.524553 0.041526
vn -0.710422 0.59606 0.374185
vn -0.314061 0.638499 0.702627
vn 0.226794 0.685152 0.692193
vn 0.722972 0.609471 0.325356
vn 0.806018 0.577123 -0.131393
vn 0.566986 0.618966 -0.543515
vn -0.0565964 0.920251 -0.387215
vn -0.319657 0.912477 -0.255354
vn 0.0128347 0.99991 -0.00396428
vn 0.324398 0.93258 -0.158305
vn 0.158715 0.881758 -0.444199
vn 0.312635 0.907727 0.279805
vn 0.528116 0.842664 0.104936
vn 0.690001 0.712775 0.125898
vn 0.539576 0.792279 -0.284874
vn 0.201361 0.780079 -0.592395
vn -0.107552 0.765996 -0.633785
vn -0.522395 0.729221 -0.441973
vn -0.682916 0.728265 -0.0570525
vn -0.515938 0.856064 -0.0310107
vn -0.514082 0.793086 0.326702
vn -0.297091 0.938658 0.175094
vn -0.0798706 0.90575 0.416218
vn -0.115365 0.790738 0.601186
vn 0.135076 0.916222 0.377216
vn 0.223263 0.728794 0.647312
vn 0.503611 0.736555 0.451512
vn 0.166512 0.86661 0.470384
vn 0.197072 0.759133 0.620387
vn 0.384811 0.73405 0.559545
vn 0.247319 0.899726 0.359621
vn 0.422197 0.740147 0.523385
vn 0.322509 0.854594 0.40701
vn -0.138333 0.932909 0.332482
vn -0.263979 0.796585 0.543845
vn 0.432926 0.901183 -0.021076
vn 0.674201 0.737817 -0.0328318
vn 0.530635 0.78949 -0.308435
vn 0.327758 0.925634 -0.189147
vn 0.228091 0.865456 -0.44605
vn 0.294699 0.756917 -0.583292
vn 0.592201 0.774175 0.223496
vn 0.365688 0.919405 0.144797
vn -0.118135 0.789501 -0.602273
vn -0.0686873 0.928275 -0.365496
vn -0.353597 0.917672 0.181237
vn -0.565422 0.77219 0.289863
vn -0.227529 0.929455 -0.290421
vn -0.416653 0.696547 -0.584142
vn -0.610873 0.687324 -0.392962
vn -0.429565 0.859718 -0.276331
vn -0.415986 0.908832 0.0312963
vn -0.661258 0.748475 0.05024
vn -0.450244 0.89085 0.0605465
vn -0.745616 0.66246 0.0721437
vn -0.447355 0.892768 0.0532843
vn -0.00606784 0.99998 0.0017485
vn 0.651118 0.710185 0.267736
vn 0.619643 0.784727 -0.0157074
vn 0.545381 0.748087 -0.378055
vn 0.323476 0.804628 -0.497932
vn -0.158032 0.789438 -0.593139
vn -0.282483 0.759196 -0.586365
vn -0.328807 0.780647 -0.531485
vn -0.536129 0.799778 -0.27004
vn -0.5793 0.801312 0.149369
vn -0.43046 0.751059 0.500614
vn -0.141292 0.783488 0.60513
vn 0.397331 0.826291 0.399212
vn -0.117545 0.992572 0.0313777
vn -0.111759 0.990316 0.0823603
vn -0.0502051 0.992925 0.107607
vn 0.00283065 0.999821 -0.0187092
vn 0.111945 0.989576 0.0905915
vn 0.106127 0.994063 0.02401
vn 0.12508 0.991988 -0.0177658
vn 0 1 0
vn -0.0651154 0.988607 -0.135704
vn -0.0459388 0.988454 -0.144391
vn -0.0847083 0.993004 -0.0822609
vn 0.0391578 0.992626 -0.114717
vn -0.0842631 0.988323 -0.126957
vn -0.655633 0.599158 -0.459515
vn -0.147556 0.810507 -0.566838
vn -0.207766 0.408501 -0.888797
vn -0.769654 0.310978 -0.557607
vn 0.50663 0.795774 -0.331767
vn 0.762088 0.405378 -0.504867
vn -0.85805 0.432174 0.277445
vn -0.380875 0.914793 0.134493
vn 0.0982216 0.670269 0.735589
vn 0.0521599 0.405258 0.912713
vn 0.56632 0.772236 0.287981
vn 0.819688 0.384365 0.424706
vn -0.000155023 0.996006 -0.0892812
vn 0.0954437 0.992834 0.071913
vt 0.616113 0.10337
vt 0.59528 0.107162
vt 0.570946 0.0901623
vt 0.59624 0.0894869
vt 0.801933 0.126311
vt 0.812638 0.084253
vt 0.835924 0.0837535
vt 0.822814 0.135253
vt 0.722624 0.212034
vt 0.72011 0.189016
vt 0.628347 0.0158543
vt 0.610261 0
vt 0.779757 0.0158543
vt 0.79566 0
vt 0.665817 0.137017
vt 0.656143 0.148362
vt 0.722787 0.0764355
vt 0.878277 0.575564
vt 0.934865 0.634445
vt 0.935177 0.653059
vt 0.865887 0.580959
vt 0.987803 0.613799
vt 1 0.627778
vt 0.833115 0.519159
vt 0.851512 0.525094
vt 0.95704 0.47309
vt 0.962332 0.455481
vt 0.987803 0.493766
vt 1 0.480799
vt 0.941424 0.565443
vt 0.942827 0.527356
vt 0.941442 0.431335
vt 0.835914 0.483339
vt 0.734974 0.440516
vt 0.736504 0.34493
vt 0.969734 0.368616
vt 0.888678 0.15911
vt 0.956734 0.227933
vt 0.74568 0.23252
vt 0.827502 0.169815
vt 0.709516 0.466723
vt 0.711388 0.349679
vt 0.897723 0.122144
vt 0.981059 0.206418
vt 0.996977 0.378683
vt 0.185424 0.908506
vt 0.0844703 0.812729
vt 0.247589 0.703883
vt 0.371802 0.90074
vt 0.278066 0.921291
vt 0.420983 0.615998
vt 0.426161 0.707892
vt 0.467167 0.710025
vt 0.400604 0.946166
vt 0.285827 0.97133
vt 0.172388 0.955675
vt 0.0487704 0.838397
vt 0.0360913 0.548372
vt 0.0741158 0.575875
vt 0.0852213 0.456451
vt 0.114238 0.500806
vt 0.225547 0.463272
vt 0.221518 0.410491
vt 0.298028 0.502101
vt 0.310268 0.458036
vt 0.460828 0.597502
vt 0.51694 0.105597
vt 0.526926 0.0594081
vt 0.572762 0.144597
vt 0.622468 0.178243
vt 0.352531 0.106362
vt 0.325609 0.0603445
vt 0.667585 0.342652
vt 0.666056 0.438238
vt 0.532999 0.513943
vt 0.546589 0.559423
vt 0.676761 0.230242
vt 0.46296 0.54504
vt 0.290592 0.187419
vt 0.249764 0.159598
vt 0.340003 0.431143
vt 0.267523 0.392315
vt 0.274533 0.239418
vt 0.230101 0.223271
vt 0.280176 0.370215
vt 0.248827 0.362788
vt 0.289827 0.353357
vt 0.48125 0.307999
vt 0.506956 0.72062
vt 0.501779 0.628726
vt 0.571817 0.597628
vt 0.704874 0.521924
vt 0.805812 0.564746
vt 0.832577 0.615216
vt 0.889164 0.674097
vt 0.976377 0.803812
vt 0.92281 0.797213
vt 0.92956 0.936775
vt 0.884576 0.905799
vt 0.77446 0.957433
vt 0.794724 1
vt 0.481985 1
vt 0.519057 0.957433
vt 0.452596 0.913468
vt 0.656611 0.748184
mtllib SteppingStoneCluster4.mtl
usemtl StepStones
f 10/1/1 8/2/2 2/3/3 9/4/4
f 12/5/5 17/6/6 5/7/7 1/8/8
f 12/5/5 1/8/8 6/9/9 13/10/10
f 15/11/11 9/4/4 2/3/3 3/12/12
f 16/13/13 15/11/11 3/12/12 4/14/14
f 16/13/13 4/14/14 5/7/7 17/6/6
f 11/15/15 13/10/10 6/9/9 7/16/16
f 11/15/15 7/16/16 8/2/2 10/1/1
f 14/17/17 11/15/15 10/1/1
f 10/1/1 9/4/4 15/11/11 14/17/17
f 13/10/10 11/15/15 14/17/17
f 17/6/6 12/5/5 13/10/10 14/17/17
f 17/6/6 14/17/17 15/11/11 16/13/13
f 26/18/18 25/19/19 18/20/20 19/21/21
f 24/22/22 23/23/23 18/20/20 25/19/19
f 26/18/18 19/21/21 20/24/24 29/25/25
f 30/26/26 29/25/25 20/24/24 21/27/27
f 31/28/28 30/26/26 21/27/27 22/29/29
f 31/28/28 22/29/29 23/23/23 24/22/22
f 27/30/30 28/31/31 31/28/28 24/22/22
f 27/30/30 24/22/22 25/19/19
f 29/25/25 27/30/30 25/19/19 26/18/18
f 28/31/31 27/30/30 29/25/25
f 31/28/28 28/31/31 29/25/25 30/26/26
f 49/32/32 48/33/33 32/34/34 35/35/35
f 45/36/36 49/32/32 35/35/35
f 40/37/37 42/38/38 45/36/36 35/35/35
f 37/39/39 39/40/40 40/37/37 35/35/35
f 48/33/33 47/24/41 33/41/42 32/34/34
f 35/35/35 32/34/34 33/41/42 34/42/43
f 35/35/35 34/42/43 36/9/44 37/39/39
f 37/39/39 36/9/44 38/8/45 39/40/40
f 39/40/40 38/8/45 41/43/46 40/37/37
f 42/38/38 40/37/37 41/43/46 43/44/47
f 45/36/36 42/38/38 43/44/47 44/45/48
f 45/36/36 44/45/48 46/27/49 49/32/32
f 49/32/32 46/27/49 47/24/41 48/33/33
f 54/46/50 64/47/51 69/48/52
f 50/49/53 52/50/54 54/46/50 69/48/52
f 68/51/55 63/52/56 50/49/53 69/48/52
f 63/52/56 62/53/57 51/54/58 50/49/53
f 52/50/54 50/49/53 51/54/58 53/55/59
f 54/46/50 52/50/54 53/55/59 55/56/60
f 64/47/51 54/46/50 55/56/60 56/57/61
f 64/47/51 56/57/61 57/58/62 65/59/63
f 65/59/63 57/58/62 58/60/64 66/61/65
f 67/62/66 66/61/65 58/60/64 59/63/67
f 70/64/68 67/62/66 59/63/67 60/65/69
f 68/51/55 70/64/68 60/65/69 61/66/70
f 63/52/56 68/51/55 61/66/70 62/53/57
f 66/61/65 69/48/52 64/47/51 65/59/63
f 67/62/66 70/64/68 69/48/52 66/61/65
f 70/64/68 68/51/55 69/48/52
f 88/67/71 72/68/72 71/2/73 91/69/74
f 91/69/74 71/2/73 74/16/75 89/70/76
f 88/67/71 97/71/77 78/72/78 72/68/72
f 87/73/79 76/42/80 73/41/81 86/74/82
f 85/75/83 86/74/82 73/41/81 77/76/84
f 89/70/76 74/16/75 75/9/85 90/77/86
f 87/73/79 90/77/86 75/9/85 76/42/80
f 85/75/83 77/76/84 83/66/87 92/78/88
f 96/79/89 79/80/90 78/72/78 97/71/77
f 94/81/91 84/65/92 80/63/93 93/82/94
f 98/83/95 82/84/96 79/80/90 96/79/89
f 95/85/97 93/82/94 80/63/93 81/86/98
f 100/87/99 95/85/97 81/86/98
f 100/87/99 81/86/98 82/84/96 98/83/95
f 94/81/91 92/78/88 83/66/87 84/65/92
f 86/74/82 85/75/83 92/78/88 99/88/100
f 87/73/79 86/74/82 99/88/100
f 87/73/79 99/88/100 90/77/86
f 91/69/74 99/88/100 97/71/77 88/67/71
f 91/69/74 89/70/76 90/77/86 99/88/100
f 96/79/89 99/88/100 98/83/95
f 92/78/88 94/81/91 99/88/100
f 94/81/91 93/82/94 95/85/97
f 99/88/100 94/81/91 95/85/97 100/87/99
f 97/71/77 99/88/100 96/79/89
f 100/87/99 98/83/95 99/88/100
f 104/89/101 101/53/101 102/66/102 103/90/102
f 106/91/103 103/90/102 102/66/102 105/76/103
f 106/91/103 105/76/103 107/41/104 108/92/104
f 110/93/105 108/92/104 107/41/104 109/24/105
f 112/94/106 110/93/105 109/24/105 111/21/106
f 112/94/106 111/21/106 113/20/107 114/95/107
f 114/95/107 113/20/107 115/96/108 116/97/108
f 116/97/108 115/96/108 117/98/109 118/99/109
f 120/100/110 118/99/109 117/98/109 119/101/110
f 120/100/110 119/101/110 121/102/111 122/103/111
f 122/103/111 121/102/111 123/54/112 124/104/112
f 104/89/101 124/104/112 123/54/112 101/53/101
f 135/99/113 125/100/114 130/103/115 136/105/116
f 129/104/117 126/89/118 131/91/119 136/105/116
f 127/90/120 131/91/119 126/89/118
f 134/94/121 128/95/122 137/97/123 136/105/116
f 130/103/115 129/104/117 136/105/116
f 131/91/119 132/92/124 136/105/116
f 134/94/121 136/105/116 132/92/124 133/93/125
f 137/97/123 135/99/113 136/105/116
f 146/18/126 145/19/127 138/20/128 139/21/129
f 144/22/130 143/23/131 138/20/128 145/19/127
f 146/18/126 139/21/129 140/24/132 149/25/133
f 150/26/134 149/25/133 140/24/132 141/27/135
f 151/28/136 150/26/134 141/27/135 142/29/137
f 151/28/136 142/29/137 143/23/131 144/22/130
f 147/30/138 148/31/139 151/28/136 144/22/130
f 147/30/138 144/22/130 145/19/127
f 149/25/133 147/30/138 145/19/127 146/18/126
f 148/31/139 147/30/138 149/25/133
f 151/28/136 148/31/139 149/25/133 150/26/134
