# OBJ written from E:\3d\3D-Objekte\todo\Platformer\Meshes\SteppingStone9.obj

o Mesh
v -0.604212 0 0.0637074
v -0.621521 0 0.370897
v -0.509723 0.110126 0.28565
v -0.49559 0.110126 0.0347805
v -0.38739 0 0.474852
v -0.318518 0.110126 0.37055
v 0.0573978 0 0.727922
v 0.0447254 0.110126 0.577227
v 0.394823 0 0.584772
v 0.32029 0.110126 0.460318
v 0.484291 0 0.416059
v 0.393354 0.110126 0.322538
v 0.673454 0 0.219225
v 0.547838 0.110126 0.161791
v 0.785931 0 -0.192331
v 0.639692 0.110126 -0.174314
v 0.658119 0 -0.555319
v 0.535315 0.110126 -0.470758
v 0.290018 0 -0.727922
v 0.234697 0.110126 -0.611719
v -0.563763 0 -0.727922
v -0.462557 0.110126 -0.611719
v -0.785931 0 -0.580957
v -0.643991 0.110126 -0.491693
v 0.234697 0.110126 -0.611719
v -0.49559 0.110126 0.0347805
v -0.509723 0.110126 0.28565
v 0.547838 0.110126 0.161791
v -0.643991 0.110126 -0.491693
v -0.462557 0.110126 -0.611719
v -0.318518 0.110126 0.37055
v 0.0447254 0.110126 0.577227
v 0.32029 0.110126 0.460318
v 0.393354 0.110126 0.322538
v 0.535315 0.110126 -0.470758
v -0.0870323 0.201779 -0.0404644
v 0.639692 0.110126 -0.174314
vn -0.699979 0.710186 0.0752729
vn -0.537118 0.784723 0.309376
vn -0.299011 0.748085 0.59242
vn -0.0467905 0.804627 0.591934
vn 0.421827 0.789436 0.445929
vn 0.527974 0.759195 0.380612
vn 0.542514 0.780643 0.310282
vn 0.600019 0.799775 -0.0183934
vn 0.437902 0.801308 -0.407612
vn 0.139541 0.751044 -0.645338
vn -0.164472 0.783477 -0.59926
vn -0.539645 0.826288 -0.161343
vn 0.0883428 0.992572 -0.0836456
vn 0.0589384 0.990317 -0.125694
vn -0.0072039 0.992925 -0.118522
vn 0.00643619 0.999821 0.0177942
vn -0.1416 0.989577 -0.026222
vn -0.104728 0.994063 0.0295204
vn -0.101458 0.991988 0.0752772
vn 0 1 0
vn 0.121961 0.988607 0.0882099
vn 0.10925 0.988454 0.104993
vn 0.113688 0.993004 0.0318938
vn 0.0203041 0.992626 0.119502
vn 0.134618 0.988323 0.0713882
vt 0.506956 0.72062
vt 0.467167 0.710025
vt 0.460828 0.597502
vt 0.501779 0.628726
vt 0.571817 0.597628
vt 0.546589 0.559423
vt 0.709516 0.466723
vt 0.704874 0.521924
vt 0.805812 0.564746
vt 0.833115 0.519159
vt 0.832577 0.615216
vt 0.865887 0.580959
vt 0.935177 0.653059
vt 0.889164 0.674097
vt 0.976377 0.803812
vt 0.92281 0.797213
vt 0.92956 0.936775
vt 0.884576 0.905799
vt 0.77446 0.957433
vt 0.794724 1
vt 0.481985 1
vt 0.519057 0.957433
vt 0.400604 0.946166
vt 0.452596 0.913468
vt 0.656611 0.748184
mtllib SteppingStone9.mtl
usemtl StepStones
f 4/1/1 1/2/1 2/3/2 3/4/2
f 6/5/3 3/4/2 2/3/2 5/6/3
f 6/5/3 5/6/3 7/7/4 8/8/4
f 10/9/5 8/8/4 7/7/4 9/10/5
f 12/11/6 10/9/5 9/10/5 11/12/6
f 12/11/6 11/12/6 13/13/7 14/14/7
f 14/14/7 13/13/7 15/15/8 16/16/8
f 16/16/8 15/15/8 17/17/9 18/18/9
f 20/19/10 18/18/9 17/17/9 19/20/10
f 20/19/10 19/20/10 21/21/11 22/22/11
f 22/22/11 21/21/11 23/23/12 24/24/12
f 4/1/1 24/24/12 23/23/12 1/2/1
f 35/18/13 25/19/14 30/22/15 36/25/16
f 29/24/17 26/1/18 31/5/19 36/25/16
f 27/4/20 31/5/19 26/1/18
f 34/11/21 28/14/22 37/16/23 36/25/16
f 30/22/15 29/24/17 36/25/16
f 31/5/19 32/8/24 36/25/16
f 34/11/21 36/25/16 32/8/24 33/9/25
f 37/16/23 35/18/13 36/25/16
