# OBJ written from E:\3d\3D-Objekte\todo\Platformer\Meshes\SteppingStoneCluster2.obj

o Mesh
v 0.404912 0 0.380413
v 0.566655 0 0.118679
v 0.427736 0.110126 0.140274
v 0.295647 0.110126 0.354023
v 0.410464 0 -0.0843658
v 0.30018 0.110126 -0.025547
v 0.140253 0 -0.518955
v 0.0795076 0.110126 -0.380463
v -0.224593 0 -0.554092
v -0.21845 0.110126 -0.409157
v -0.383704 0 -0.448486
v -0.34839 0.110126 -0.322914
v -0.64385 0 -0.365723
v -0.560842 0.110126 -0.255322
v -0.939018 0 -0.0576553
v -0.801896 0.110126 -0.00373459
v -0.99983 0 0.322342
v -0.85156 0.110126 0.306599
v -0.758638 0 0.649632
v -0.654586 0.110126 0.573883
v -0.00824952 0 1.05688
v -0.0417683 0.110126 0.906475
v 0.257118 0 1.03369
v 0.174948 0.110126 0.887531
v -0.654586 0.110126 0.573883
v 0.295647 0.110126 0.354023
v 0.427736 0.110126 0.140274
v -0.560842 0.110126 -0.255322
v 0.174948 0.110126 0.887531
v -0.0417683 0.110126 0.906475
v 0.30018 0.110126 -0.025547
v 0.0795076 0.110126 -0.380463
v -0.21845 0.110126 -0.409157
v -0.34839 0.110126 -0.322914
v -0.85156 0.110126 0.306599
v -0.0993292 0.201779 0.225277
v -0.801896 0.110126 -0.00373459
v 0.815208 0 0.250137
v 0.99983 0 0.371143
v 0.627455 0 0.250137
v 0.529211 0 0.366722
v 0.529211 0 0.5928
v 0.662354 0 0.691311
v 0.673959 0.110126 0.645321
v 0.565227 0.110126 0.380238
v 0.565227 0.110126 0.564869
v 0.71207 0.163239 0.43959
v 0.949565 0.110126 0.38385
v 0.798791 0.110126 0.285027
v 0.645458 0.110126 0.285027
v 0.947399 0 1.26527
v 0.382464 0 1.02754
v 0.298109 0 1.34196
v 0.359548 0.110126 1.31963
v 0.66434 0.150513 1.2272
v 0.889803 0.110126 1.257
v 0.740341 0 0.994305
v 0.7135 0 0.907394
v 0.428439 0.110126 1.06285
v 0.720706 0.110126 1.03571
v 0.698785 0.110126 0.964733
v 0.90024 0.110126 1.39154
v 0.501505 0.110126 1.39154
v 0.471932 0 1.43001
v 0.960179 0 1.43001
v -0.707474 0 -1.43001
v -0.335385 0 -1.30454
v -0.340959 0.110126 -0.762138
v -0.285113 0 -0.706516
v -0.616149 0 -0.586372
v -0.311953 0 -0.79343
v -0.260829 0 -1.17431
v -0.881999 0 -0.780647
v -0.846211 0 -1.34814
v -0.930568 0 -1.08229
v -0.86808 0.110126 -1.06902
v -0.685888 0.110126 -1.35299
v -0.79919 0.110126 -1.28613
v -0.828415 0.110126 -0.822681
v -0.611305 0.110126 -0.664021
v -0.581034 0.189417 -1.05962
v -0.362879 0.110126 -0.833118
v -0.321127 0.110126 -1.14417
v -0.382015 0.110126 -1.25053
vn 0.651118 0.710185 0.267736
vn 0.619643 0.784727 -0.0157074
vn 0.545381 0.748087 -0.378056
vn 0.323476 0.804628 -0.497932
vn -0.158032 0.789438 -0.593139
vn -0.282483 0.759196 -0.586365
vn -0.328807 0.780647 -0.531485
vn -0.536129 0.799778 -0.27004
vn -0.5793 0.801312 0.149369
vn -0.43046 0.751059 0.500614
vn -0.141292 0.783488 0.60513
vn 0.397331 0.826291 0.399212
vn -0.117545 0.992572 0.0313777
vn -0.111759 0.990316 0.0823603
vn -0.0502051 0.992925 0.107607
vn 0.00283065 0.999821 -0.0187092
vn 0.111945 0.989576 0.0905915
vn 0.106127 0.994063 0.02401
vn 0.12508 0.991988 -0.0177658
vn 0 1 0
vn -0.0651154 0.988607 -0.135704
vn -0.0459388 0.988454 -0.144391
vn -0.0847083 0.993004 -0.0822609
vn 0.0391578 0.992626 -0.114717
vn -0.0842631 0.988323 -0.126957
vn -0.73699 0.597806 -0.315396
vn -0.886831 0.329758 -0.323714
vn -0.829844 0.375969 0.412317
vn -0.580329 0.782087 0.227063
vn 0.195365 0.594198 -0.780231
vn 0.146313 0.918139 -0.368258
vn 0.51794 0.327565 -0.790215
vn 0.269101 0.327107 -0.905862
vn -0.396506 0.335546 -0.854513
vn -0.28724 0.733164 -0.616412
vn -0.019054 0.681321 0.731737
vn 0.0749977 0.377544 0.922949
vn 0.670683 0.22455 0.706938
vn 0.320376 0.747045 0.582481
vn 0.384242 0.920498 -0.0709993
vn -0.14353 0.983437 -0.110684
vn -0.156054 0.639096 0.753129
vn -0.415844 0.888188 0.195439
vn -0.782944 0.509267 0.357276
vn -0.212514 0.372659 0.903307
vn 0.684846 0.666316 -0.294973
vn 0.34934 0.883272 0.312718
vn 0.601203 0.534699 0.593845
vn 0.846147 0.417684 -0.331021
vn 0.416146 0.463059 -0.782559
vn -0.65009 0.464279 -0.601522
vn -0.360302 0.846691 -0.391532
vn 0.286997 0.791429 -0.539697
vn 0.43875 0.850704 -0.289484
vn 0.845014 0.313544 -0.433175
vn 0.0593335 0.997382 -0.0413278
vn 0.37259 0.807313 -0.457627
vn 0.53237 0.543662 -0.648856
vn -0.0758094 0.581393 -0.810084
vn -0.0159227 0.748011 -0.663496
vn -0.394445 0.838148 -0.376723
vn -0.651559 0.563914 -0.507417
vn 0.68636 0.708591 -0.163734
vn 0.846957 0.507291 -0.15912
vn 0.525508 0.820648 0.224451
vn 0.507099 0.861589 -0.0226899
vn -0.0234498 0.872988 0.487178
vn -0.120373 0.575601 0.808822
vn 0.765858 0.55359 0.327108
vn 0.915546 0.39369 -0.08237
vn -0.438718 0.854028 0.279577
vn -0.728791 0.523207 0.441722
vn -0.708678 0.701595 -0.0744321
vn -0.864806 0.498221 -0.0623479
vn 0.0574729 0.995067 -0.0808559
vt 0.506956 0.72062
vt 0.467167 0.710025
vt 0.460828 0.597502
vt 0.501779 0.628726
vt 0.571817 0.597628
vt 0.546589 0.559423
vt 0.709516 0.466723
vt 0.704874 0.521924
vt 0.805812 0.564746
vt 0.833115 0.519159
vt 0.832577 0.615216
vt 0.865887 0.580959
vt 0.935177 0.653059
vt 0.889164 0.674097
vt 0.976377 0.803812
vt 0.92281 0.797213
vt 0.92956 0.936775
vt 0.884576 0.905799
vt 0.77446 0.957433
vt 0.794724 1
vt 0.481985 1
vt 0.519057 0.957433
vt 0.400604 0.946166
vt 0.452596 0.913468
vt 0.656611 0.748184
vt 0.0131922 0.952343
vt 0 0.957294
vt 0 0.874481
vt 0.0131922 0.884713
vt 0.0987468 0.98722
vt 0.153975 0.951021
vt 0.172388 0.955675
vt 0.104761 1
vt 0.0359864 1
vt 0.0425811 0.98722
vt 0.053021 0.855244
vt 0.0487704 0.838397
vt 0.066981 0.930603
vt 0.162278 0.0140924
vt 0.11028 0.040433
vt 0.0877743 0.0322537
vt 0.151446 0
vt 0.304512 0.0633738
vt 0.308335 0.0140924
vt 0.33029 0
vt 0.325609 0.0603445
vt 0.239932 0.191435
vt 0.118674 0.147426
vt 0.135514 0.13449
vt 0.234542 0.170431
vt 0.242571 0.144431
vt 0.249764 0.159598
vt 0.221925 0.0742913
vt 0.204437 0.390705
vt 0.221518 0.410491
vt 0.0852213 0.456451
vt 0.0931282 0.42824
vt 0.0516257 0.403747
vt 0.0344019 0.42646
vt 0.22674 0.351748
vt 0.248827 0.362788
vt 0.219476 0.21181
vt 0.211447 0.237809
vt 0.120448 0.175869
vt 0.230101 0.223271
vt 0.0409203 0.233986
vt 0.0212927 0.218589
vt 0.026391 0.324219
vt 0.00350189 0.329079
vt 0.131536 0.320778
mtllib SteppingStoneCluster2.mtl
usemtl StepStones
f 4/1/1 1/2/1 2/3/2 3/4/2
f 6/5/3 3/4/2 2/3/2 5/6/3
f 6/5/3 5/6/3 7/7/4 8/8/4
f 10/9/5 8/8/4 7/7/4 9/10/5
f 12/11/6 10/9/5 9/10/5 11/12/6
f 12/11/6 11/12/6 13/13/7 14/14/7
f 14/14/7 13/13/7 15/15/8 16/16/8
f 16/16/8 15/15/8 17/17/9 18/18/9
f 20/19/10 18/18/9 17/17/9 19/20/10
f 20/19/10 19/20/10 21/21/11 22/22/11
f 22/22/11 21/21/11 23/23/12 24/24/12
f 4/1/1 24/24/12 23/23/12 1/2/1
f 35/18/13 25/19/14 30/22/15 36/25/16
f 29/24/17 26/1/18 31/5/19 36/25/16
f 27/4/20 31/5/19 26/1/18
f 34/11/21 28/14/22 37/16/23 36/25/16
f 30/22/15 29/24/17 36/25/16
f 31/5/19 32/8/24 36/25/16
f 34/11/21 36/25/16 32/8/24 33/9/25
f 37/16/23 35/18/13 36/25/16
f 45/26/26 41/27/27 42/28/28 46/29/29
f 49/30/30 48/31/31 39/32/32 38/33/33
f 49/30/30 38/33/33 40/34/34 50/35/35
f 44/36/36 43/37/37 39/32/38 48/31/39
f 46/29/29 44/36/36 48/31/40 47/38/41
f 45/26/26 50/35/35 40/34/34 41/27/27
f 46/29/29 42/28/28 43/37/37 44/36/36
f 50/35/35 45/26/26 46/29/29 47/38/41
f 50/35/35 47/38/41 48/31/31 49/30/30
f 63/39/42 54/40/43 53/41/44 64/42/45
f 56/43/46 62/44/47 65/45/48 51/46/49
f 58/47/50 52/48/51 59/49/52 61/50/53
f 60/51/54 56/43/46 51/46/49 57/52/55
f 59/49/52 52/48/51 53/41/44 54/40/43
f 60/51/54 59/49/52 54/40/43 55/53/56
f 62/44/47 55/53/56 54/40/43 63/39/42
f 60/51/54 55/53/56 62/44/47 56/43/46
f 60/51/54 57/52/55 58/47/50 61/50/53
f 61/50/53 59/49/52 60/51/54
f 65/45/48 62/44/47 63/39/42 64/42/45
f 84/54/57 67/55/58 66/56/59 77/57/60
f 78/58/61 77/57/60 66/56/59 74/59/62
f 83/60/63 72/61/64 67/55/58 84/54/57
f 68/62/65 82/63/66 80/64/67
f 80/64/67 70/48/68 69/47/69 68/62/65
f 82/63/66 68/62/65 69/47/69 71/65/70
f 79/66/71 73/67/72 70/48/68 80/64/67
f 82/63/66 71/65/70 72/61/64 83/60/63
f 76/68/73 75/69/74 73/67/72 79/66/71
f 76/68/73 78/58/61 74/59/62 75/69/74
f 78/58/61 76/68/73 79/66/71 81/70/75
f 84/54/57 77/57/60 78/58/61 81/70/75
f 82/63/66 81/70/75 79/66/71 80/64/67
f 84/54/57 81/70/75 82/63/66 83/60/63
