# OBJ written from E:\3d\3D-Objekte\todo\Platformer\Meshes\WoodStaircaseSmall.obj

o Mesh
v -0.518944 0.0780241 1.10657
v -0.518941 0.432205 1.10657
v 3.16663 -2.68553 1.10845
v 3.16663 -3.03972 1.10845
v 3.16304 -3.03972 1.20703
v -0.522533 0.0780241 1.20515
v -0.52253 0.432205 1.20515
v 3.16305 -2.68553 1.20703
v 0.235462 -0.0334866 1.31962
v -0.281267 -0.0334866 1.31962
v -0.281267 -0.0334866 -1.31962
v 0.235462 -0.0334866 -1.31962
v 0.235462 0.103168 -1.31962
v 0.235462 0.103168 1.31962
v -0.281267 0.103168 1.31962
v -0.281267 0.103168 -1.31962
v 3.0848 -2.42664 1.31774
v 2.56806 -2.42664 1.31774
v 2.56806 -2.37205 -1.32087
v 3.0848 -2.37205 -1.32087
v 3.0848 -2.23543 -1.31774
v 3.0848 -2.29002 1.32087
v 2.56806 -2.29002 1.32087
v 2.56806 -2.23543 -1.31774
v 2.6204 -1.98617 1.31923
v 2.10367 -1.98616 1.31923
v 2.10367 -1.97325 -1.31997
v 2.6204 -1.97325 -1.31997
v 2.6204 -1.83659 -1.31923
v 2.6204 -1.84951 1.31997
v 2.10367 -1.84951 1.31997
v 2.10367 -1.8366 -1.31923
v 2.14095 -1.61814 1.31774
v 1.62422 -1.61814 1.31774
v 1.62422 -1.56354 -1.32087
v 2.14095 -1.56354 -1.32087
v 2.14095 -1.42692 -1.31774
v 2.14095 -1.48151 1.32087
v 1.62422 -1.48151 1.32087
v 1.62422 -1.42692 -1.31774
v 1.66899 -1.18038 1.31923
v 1.15226 -1.18038 1.31923
v 1.15226 -1.16746 -1.31997
v 1.66899 -1.16746 -1.31997
v 1.66899 -1.03081 -1.31923
v 1.66899 -1.04373 1.31997
v 1.15226 -1.04373 1.31997
v 1.15226 -1.03081 -1.31923
v 1.18626 -0.78155 1.31774
v 0.669533 -0.78155 1.31774
v 0.669533 -0.726958 -1.32087
v 1.18626 -0.726956 -1.32087
v 1.18626 -0.590336 -1.31774
v 1.18626 -0.644926 1.32087
v 0.669533 -0.644925 1.32087
v 0.669533 -0.590336 -1.31774
v 0.729721 -0.410482 1.31923
v 0.212986 -0.410482 1.31923
v 0.212989 -0.397566 -1.31997
v 0.729723 -0.397566 -1.31997
v 0.729721 -0.260913 -1.31923
v 0.729721 -0.273829 1.31997
v 0.212986 -0.273829 1.31997
v 0.212989 -0.260913 -1.31923
v -0.518944 0.0780241 -1.24238
v -0.518941 0.432205 -1.24238
v 3.16663 -2.68553 -1.2405
v 3.16663 -3.03972 -1.2405
v 3.16304 -3.03972 -1.14192
v -0.522533 0.0780241 -1.1438
v -0.52253 0.432205 -1.1438
v 3.16305 -2.68553 -1.14192
vn -0.000509977 4.46278e-009 1
vn 0.999338 -8.74516e-006 0.0363816
vn 0.00051001 -4.20562e-009 -1
vn -0.999338 8.2407e-006 -0.0363804
vn -0.645658 -0.763265 -0.0235056
vn 0.645657 0.763265 0.0235048
vn 0 0.999988 0.00489379
vn 0 0.00540239 -0.999985
vn 0 -0.999988 -0.00489379
vn 0 -0.00542507 0.999985
vn 1 2.13661e-005 1.2112e-006
vn -1 6.06475e-009 -1.11789e-006
vn 0 0.999786 0.0206847
vn 0 0.0229239 -0.999737
vn 1.24077e-007 -0.999786 -0.0206859
vn -6.06005e-006 -0.0229234 0.999737
vn 1 0 0
vn -1 0 0
vn 0 0.999988 0.00489433
vn 0 0.00540239 -0.999985
vn 0 -0.999988 -0.00489379
vn 0 -0.00542513 0.999985
vn 0 0.0229237 -0.999737
vn 1.24074e-007 -0.999786 -0.0206853
vn -5.99659e-006 -0.0229234 0.999737
vn -2.76835e-006 0.999988 0.00489433
vn -1.49556e-008 0.00540228 -0.999985
vn -2.76835e-006 -0.999988 -0.00489379
vn 1.62701e-008 -0.00542501 0.999985
vn 1 2.09296e-005 1.18647e-006
vn 0 0.999786 0.0206853
vn 0 0.0229234 -0.999737
vn 1.24074e-007 -0.999786 -0.0206853
vn -5.99659e-006 -0.0229234 0.999737
vn 0 1 0
vn 0 0 -1
vn 0 -1 0
vn 0 0 1
vn 0.999338 -8.74516e-006 0.0363828
vn -0.999338 8.2407e-006 -0.0363815
vn -0.645658 -0.763265 -0.0235064
vn 0.645657 0.763265 0.0235055
vt -0.689152 0.314637
vt -0.689152 0.253471
vt 0.310848 0.253471
vt 0.310848 0.314637
vt 0.469805 0.688208
vt 0.667777 0.688208
vt 0.667777 0.752005
vt 0.469805 0.752005
vt 0.469805 0.314637
vt 0.469805 0.253471
vt 0.667776 0.253471
vt 0.667776 0.314637
vt 0.92579 0.874994
vt 0.92579 0.938791
vt -0.0744254 0.938791
vt -0.0744255 0.874994
vt -0.0744255 0.874994
vt 0.92579 0.874994
vt 0.925791 0.938791
vt -0.0744255 0.938791
vt 0.320929 0.184013
vt 0.320929 0.130808
vt 1.32093 0.130808
vt 1.32093 0.184013
vt 0 0.314637
vt 0 0.253471
vt 1 0.253471
vt 1 0.314637
vt -0.368223 0.184013
vt -0.368223 0.130808
vt 0.631777 0.130808
vt 0.631777 0.184013
mtllib WoodStaircaseSmall.mtl
usemtl WoodFloor
f 69/1/1 72/2/1 71/3/1 70/4/1
f 69/5/2 68/6/2 67/7/2 72/8/2
f 65/4/3 66/3/3 67/2/3 68/1/3
f 70/9/4 71/10/4 66/11/4 65/12/4
f 68/13/5 69/14/5 70/15/5 65/16/5
f 71/17/6 72/18/6 67/19/6 66/20/6
f 61/21/7 64/22/7 63/23/7 62/24/7
f 61/5/8 60/6/8 59/7/8 64/8/8
f 57/24/9 58/23/9 59/22/9 60/21/9
f 62/9/10 63/10/10 58/11/10 57/12/10
f 60/13/11 61/14/11 62/15/11 57/16/11
f 63/17/12 64/18/12 59/19/12 58/20/12
f 53/25/13 56/26/13 55/27/13 54/28/13
f 53/5/14 52/6/14 51/7/14 56/8/14
f 49/28/15 50/27/15 51/26/15 52/25/15
f 54/9/16 55/10/16 50/11/16 49/12/16
f 52/13/17 53/14/17 54/15/17 49/16/17
f 55/17/18 56/18/18 51/19/18 50/20/18
f 45/29/19 48/30/19 47/31/19 46/32/19
f 45/5/20 44/6/20 43/7/20 48/8/20
f 41/32/21 42/31/21 43/30/21 44/29/21
f 46/9/22 47/10/22 42/11/22 41/12/22
f 44/13/17 45/14/17 46/15/17 41/16/17
f 47/17/18 48/18/18 43/19/18 42/20/18
f 37/25/13 40/26/13 39/27/13 38/28/13
f 37/5/23 36/6/23 35/7/23 40/8/23
f 33/28/24 34/27/24 35/26/24 36/25/24
f 38/9/25 39/10/25 34/11/25 33/12/25
f 36/13/17 37/14/17 38/15/17 33/16/17
f 39/17/18 40/18/18 35/19/18 34/20/18
f 29/21/26 32/22/26 31/23/26 30/24/26
f 29/5/27 28/6/27 27/7/27 32/8/27
f 25/24/28 26/23/28 27/22/28 28/21/28
f 30/9/29 31/10/29 26/11/29 25/12/29
f 28/13/30 29/14/30 30/15/30 25/16/30
f 31/17/18 32/18/18 27/19/18 26/20/18
f 21/1/31 24/2/31 23/3/31 22/4/31
f 21/5/32 20/6/32 19/7/32 24/8/32
f 17/4/33 18/3/33 19/2/33 20/1/33
f 22/9/34 23/10/34 18/11/34 17/12/34
f 20/13/17 21/14/17 22/15/17 17/16/17
f 23/17/18 24/18/18 19/19/18 18/20/18
f 13/1/35 16/2/35 15/3/35 14/4/35
f 13/5/36 12/6/36 11/7/36 16/8/36
f 9/4/37 10/3/37 11/2/37 12/1/37
f 14/9/38 15/10/38 10/11/38 9/12/38
f 12/13/17 13/14/17 14/15/17 9/16/17
f 15/17/18 16/18/18 11/19/18 10/20/18
f 5/1/1 8/2/1 7/3/1 6/4/1
f 5/5/39 4/6/39 3/7/39 8/8/39
f 1/4/3 2/3/3 3/2/3 4/1/3
f 6/9/40 7/10/40 2/11/40 1/12/40
f 4/13/41 5/14/41 6/15/41 1/16/41
f 7/17/42 8/18/42 3/19/42 2/20/42
